<svg width="440" height="440" viewBox="0 0 440 440" fill="none" xmlns="http://www.w3.org/2000/svg">
<rect width="440" height="440" rx="72" fill="black"/>
<path d="M304.548 120.13V145.13C304.548 149.549 300.966 153.13 296.548 153.13H222.048C214.548 152.63 187.248 153.33 178.048 160.13C166.548 168.63 161.048 184.261 161.048 227.13C161.048 270 195.5 277.63 208.048 277.63H298.048C302.466 277.63 306.048 281.212 306.048 285.63V313.236C306.048 317.613 302.545 321.176 298.168 321.203C267.914 321.39 203.704 320.951 188.048 319.13C166.548 316.63 155.548 307.13 144.548 299.63C135.748 293.63 126.215 275.797 122.548 267.63C115.882 251.13 106.748 207.13 123.548 163.13C140.348 119.13 184.882 110.797 205.048 112.13H296.548C300.966 112.13 304.548 115.712 304.548 120.13Z" fill="white"/>
</svg>
