<svg width="685" height="685" viewBox="0 0 685 685" fill="none" xmlns="http://www.w3.org/2000/svg">
<g clip-path="url(#clip0_129_13038)">
<path fill-rule="evenodd" clip-rule="evenodd" d="M386.164 34.2073C390.839 36.2567 394.893 39.989 398.338 45.1563C409.287 61.5798 408.818 78.808 401.207 95.2365C393.728 111.379 379.336 126.9 362.087 141.042C349.647 151.24 335.505 160.894 320.942 169.708C321.153 170.75 321.389 171.768 321.652 172.761C324.301 182.77 329.471 189.839 337.54 193.371C345.802 196.988 358.145 197.364 376.039 191.543C393.878 185.74 416.65 173.96 445.257 154.178C447.54 152.6 450.669 153.171 452.247 155.453C453.825 157.735 453.254 160.865 450.972 162.443C421.944 182.516 398.269 194.878 379.147 201.098C360.079 207.301 344.945 207.581 333.51 202.576C321.882 197.486 315.134 187.406 311.938 175.332C311.915 175.242 311.891 175.153 311.868 175.064C288.783 188.357 265.314 199.422 246.444 207.11C243.875 208.157 240.943 206.922 239.896 204.353C238.849 201.783 240.084 198.851 242.653 197.804C262.126 189.871 286.455 178.324 310.015 164.52C309.06 155.154 309.643 144.907 311.328 134.513C316.048 105.406 329.693 73.5488 345.528 53.4557C353.363 43.5142 362.321 35.6992 371.657 33.2408C376.48 31.9708 381.429 32.1318 386.164 34.2073ZM319.675 158.703C332.469 150.777 344.795 142.225 355.716 133.271C372.496 119.515 385.543 105.145 392.09 91.0127C398.505 77.1669 398.649 63.7376 389.977 50.7299C387.291 46.6999 384.599 44.4923 382.13 43.4101C379.721 42.3539 377.125 42.1916 374.216 42.9575C368.089 44.5708 360.837 50.2643 353.42 59.6753C338.751 78.2874 325.724 108.512 321.247 136.121C319.952 144.103 319.395 151.731 319.675 158.703Z" fill="#F7F7F7"/>
<path fill-rule="evenodd" clip-rule="evenodd" d="M324.412 273.419C327.136 273.946 328.917 276.582 328.39 279.306C326.017 291.566 324.902 309.731 328.92 324.556C330.917 331.926 334.084 338.11 338.636 342.416C343.079 346.619 349.173 349.358 357.794 349.358C360.042 349.358 362.016 350.851 362.628 353.013C363.24 355.176 362.341 357.482 360.427 358.66L328.543 378.281C326.18 379.735 323.085 378.999 321.631 376.636C320.177 374.273 320.914 371.178 323.277 369.724L343.771 357.112C339.132 355.449 335.128 352.929 331.731 349.716C325.4 343.726 321.516 335.654 319.221 327.184C314.654 310.33 315.993 290.48 318.525 277.396C319.052 274.672 321.688 272.891 324.412 273.419ZM457.261 317.594C459.969 316.992 462.653 318.699 463.255 321.408C464.47 326.876 473.268 343.396 499.571 354.669C502.122 355.762 503.303 358.716 502.21 361.266C501.117 363.816 498.163 364.998 495.613 363.905C486.192 359.867 478.628 355.123 472.646 350.245C453.727 393.891 429.719 420.983 403.35 435.503C375.699 450.729 346.088 451.78 318.357 444.468C290.696 437.174 264.771 421.544 244.003 403.131C227.302 388.324 213.694 371.501 205.169 355.398C200.829 363.51 194.789 367.814 189.783 369.066C187.091 369.739 184.363 368.102 183.69 365.411C183.017 362.719 184.654 359.991 187.346 359.318C189.859 358.69 196.831 354.486 199.696 341.069C200.727 336.245 201.213 330.237 200.72 322.832C200.535 320.064 202.63 317.67 205.398 317.485C208.167 317.301 210.561 319.395 210.745 322.164C211.245 329.665 210.854 336.124 209.825 341.656C216.714 358.781 231.272 378.415 250.669 395.612C270.532 413.222 295.095 427.943 320.919 434.752C346.672 441.542 373.542 440.447 398.503 426.701C423.02 413.201 446.306 387.162 464.845 342.922C457.952 335.419 454.488 328.276 453.446 323.588C452.844 320.879 454.552 318.195 457.261 317.594Z" fill="#F7F7F7"/>
<path d="M391.966 315.192C391.966 321.964 388.671 327.455 384.608 327.455C380.544 327.455 377.25 321.964 377.25 315.192C377.25 308.419 380.544 302.929 384.608 302.929C388.671 302.929 391.966 308.419 391.966 315.192Z" fill="#F7F7F7"/>
<path d="M274.282 315.192C274.282 321.964 270.988 327.455 266.924 327.455C262.861 327.455 259.566 321.964 259.566 315.192C259.566 308.419 262.861 302.929 266.924 302.929C270.988 302.929 274.282 308.419 274.282 315.192Z" fill="#F7F7F7"/>
<path fill-rule="evenodd" clip-rule="evenodd" d="M549.793 151.839C524.209 73.1289 439.592 0 319.257 0C177.178 0 62 115.178 62 257.257C62 399.336 177.178 514.514 319.257 514.514C432.209 514.514 523.549 423.717 523.549 389.669L523.386 389.589C523.966 386.316 524.269 382.946 524.269 379.503V375.316C524.269 344.615 500.078 319.366 469.405 318.053C447.764 317.126 428.508 328.3 418.013 345.464C393.766 372.592 358.506 389.669 319.257 389.669C246.128 389.669 186.845 330.386 186.845 257.257C186.845 184.128 246.128 124.845 319.257 124.845C373.554 124.845 420.218 157.527 440.651 204.292L440.896 204.192C449.85 226.429 471.626 242.126 497.068 242.126C530.498 242.126 557.599 215.025 557.599 181.595C557.599 170.779 554.762 160.626 549.793 151.839Z" fill="black"/>
<path d="M62.082 270.197L106.514 134.13L186.47 85.0127V622.807C186.47 657.155 158.625 685.001 124.276 685.001V685.001C89.9272 685.001 62.082 657.155 62.082 622.807V270.197Z" fill="black"/>
<circle cx="593.674" cy="293.433" r="36.4743" fill="#076AFE"/>
</g>
<defs>
<clipPath id="clip0_129_13038">
<rect width="685" height="685" fill="white"/>
</clipPath>
</defs>
</svg>
